<svg width="30" height="29" viewBox="0 0 30 29" fill="none" xmlns="http://www.w3.org/2000/svg">
<path fill-rule="evenodd" clip-rule="evenodd" d="M3.74992 10.4376H6.66627C6.66668 10.9532 6.96208 11.4494 7.47273 11.6957C8.19312 12.0431 9.0691 11.7615 9.42929 11.0666L9.75538 10.4376H21.0778L21.4039 11.0666C21.7641 11.7615 22.6401 12.0431 23.3604 11.6957C23.8711 11.4494 24.1665 10.9532 24.1669 10.4376H27.0833V13.2508H3.74992V10.4376ZM22.8804 7.62431H27.0833C28.6941 7.62431 29.9999 8.88385 29.9999 10.4376V13.2508C29.9999 14.4324 29.2447 15.4439 28.1744 15.8606C28.1794 15.9278 28.1819 15.9957 28.1819 16.0641C28.1819 16.2693 28.1586 16.474 28.1125 16.6744L25.844 26.5208C25.5474 27.808 24.3638 28.7238 22.9968 28.7238H7.83642C6.46938 28.7238 5.28576 27.808 4.98921 26.5208L2.72069 16.6744C2.65755 16.4003 2.63819 16.1267 2.65813 15.8604C1.58819 15.4435 0.833252 14.4322 0.833252 13.2508V10.4376C0.833252 8.88385 2.13909 7.62431 3.74992 7.62431H7.95278L11.1955 1.36872C11.5557 0.67388 12.4317 0.392238 13.1521 0.739661C13.8725 1.08708 14.1645 1.93201 13.8043 2.62685L11.2137 7.62431H19.6195L17.0289 2.62685C16.6687 1.93201 16.9607 1.08708 17.6811 0.739661C18.4014 0.392238 19.2774 0.67388 19.6376 1.36872L22.8804 7.62431ZM5.5679 16.0641H25.2653L22.9967 25.9105H7.83642L5.5679 16.0641Z" fill="#5F413C"/>
</svg>
